<svg xmlns="http://www.w3.org/2000/svg" viewBox="0 0 600 900">
  <!-- Hexagonal frame -->
  <path d="M80 90 L200 90 L80 90 L10 450 L80 810 L200 810 L520 810 L590 450 L520 90 L400 90 M100 120 L100 780 L180 780 L180 120 M420 120 L500 120 L500 780 L420 780 M30 450 L100 120 M570 450 L500 120 M30 450 L100 780 M570 450 L500 780" fill="none" stroke="black" stroke-width="20"/>
  
  <!-- D letter with diagonal stripes -->
  <g transform="translate(165, 190)">
    <!-- Main D shape -->
    <path d="M0 0 L240 0 C240 0 280 40 280 180 C280 320 240 360 240 360 L0 360 Z" fill="black"/>
    <!-- Diagonal stripes (white) -->
    <path d="M0 290 L290 0 L290 40 L0 330 Z M0 330 L250 80 L290 80 L40 330 Z M0 360 L210 150 L250 150 L0 400 Z" fill="white"/>
  </g>
  
  <!-- Text: DEVELOPER -->
  <text x="300" y="110" font-family="Arial Black, sans-serif" font-size="28" font-weight="900" text-anchor="middle" fill="black">•DEVELOPER•</text>
  
  <!-- Text: STUDIO -->
  <text x="300" y="680" font-family="Arial Black, sans-serif" font-size="90" font-weight="900" text-anchor="middle" fill="black">STUDIO</text>
  
  <!-- Text: TESTER -->
  <text x="300" y="790" font-family="Arial Black, sans-serif" font-size="28" font-weight="900" text-anchor="middle" fill="black">• TESTER •</text>
</svg>
